PathFileType	4	(X/Y/Z)	/Users/niels/Desktop/University/Third Semester/Perception and Action/Exam/Gymnastics Motion Tracking/Code for Gym Tracking/Analyzed Data/Webcam_Backflip/id12_1_baseline_Sports2D/id12_1_baseline_Sports2D_px_person00.trc
DataRate	CameraRate	NumFrames	NumMarkers	Units	OrigDataRate	OrigDataStartFrame	OrigNumFrames
29.705882352941178	29.705882352941178	7	22	m	29.705882352941178	25	102
Frame#	Time	Hip			RHip			RKnee			RAnkle			RBigToe			RSmallToe			RHeel			LHip			LKnee			LAnkle			LBigToe			LSmallToe			LHeel			Neck			Head			Nose			RShoulder			RElbow			RWrist			LShoulder			LElbow			LWrist		
		X1	Y1	Z1	X2	Y2	Z2	X3	Y3	Z3	X4	Y4	Z4	X5	Y5	Z5	X6	Y6	Z6	X7	Y7	Z7	X8	Y8	Z8	X9	Y9	Z9	X10	Y10	Z10	X11	Y11	Z11	X12	Y12	Z12	X13	Y13	Z13	X14	Y14	Z14	X15	Y15	Z15	X16	Y16	Z16	X17	Y17	Z17	X18	Y18	Z18	X19	Y19	Z19	X20	Y20	Z20	X21	Y21	Z21	X22	Y22	Z22
25	0.8415841584158417	0.9803977757782345	-0.5616500195763613	0.0	0.9614562447873468	-0.5591568576506778	0.0	0.9431192044201352	-0.7590868501049114	0.0	0.8286827941902813	-0.9431410808557553	0.0	0.8514167134153242	-0.9980969461481161	0.0	0.8271338302277271	-0.9972957410843564	0.0	0.811764440844799	-0.9605684581807229	0.0	1.011203315429609	-0.5614771238952684	0.0	1.0546896693867862	-0.7521596409857315	0.0	1.0142998597193587	-0.9470678181593054	0.0	1.0997211327738126	-0.980966879452246	0.0	1.0902248713370437	-0.9713371077302727	0.0	0.9923173791104387	-0.9703080869610807	0.0	0.9878241506557838	-0.2760045059481227	0.0	1.0119136169840033	-0.15121095222392128	0.0	1.0241414537981153	-0.22166306133245983	0.0	0.9532481804440441	-0.32313834071154734	0.0	1.0238462496470482	-0.45770432111565823	0.0	1.1443878696378975	-0.5257004266963619	0.0	1.0045993331508507	-0.3144470268546178	0.0	1.0163636721320732	-0.44689634167169995	0.0	1.0644522052650451	-0.5417654005394248	0.0
26	0.8752475247524754	0.9686968902395273	-0.560412523783694	0.0	0.9473452759025189	-0.5576514594137056	0.0	0.9085745249364091	-0.7594572558535068	0.0	0.7945932682356628	-0.9456213785740752	0.0	0.8090988044707978	-1.0017518809286097	0.0	0.7838564168753781	-1.0004860146198304	0.0	0.779239342484796	-0.9616560425208588	0.0	1.0012449547075166	-0.5612731122408093	0.0	1.0477366388997211	-0.7527688085819558	0.0	1.0131634550969741	-0.9486836228957469	0.0	1.1003521632604862	-0.9815042399267642	0.0	1.0910158596251007	-0.9718070362457627	0.0	0.9919211768155503	-0.9714969776411047	0.0	0.981895686532959	-0.27656629795875576	0.0	1.0073602323885888	-0.15056983202401186	0.0	1.0195305685529346	-0.2223482189885326	0.0	0.9480713930021835	-0.32347482650303944	0.0	1.027142419625003	-0.4551771740237915	0.0	1.1505335639686816	-0.5160912207311402	0.0	0.9993336842833392	-0.314053428098914	0.0	1.000631679348437	-0.44664780922646297	0.0	1.0459366519244728	-0.5430161799723416	0.0
27	0.9089108910891089	0.9557808046596609	-0.5596018430832409	0.0	0.9313648084893835	-0.5564672098779716	0.0	0.8769640407996669	-0.7598571413850406	0.0	0.7653668558863639	-0.9494356287545488	0.0	0.7762915361705541	-1.0059337351088076	0.0	0.7501199911590735	-1.00457074238243	0.0	0.7511341603309519	-0.9643236480687252	0.0	0.9897715131461146	-0.5614480874935007	0.0	1.040219877746392	-0.7532847204374634	0.0	1.0129133503867844	-0.9496084362919114	0.0	1.1015867630011462	-0.9816050015069855	0.0	1.0930273787623468	-0.9719470528602445	0.0	0.9920763086562767	-0.9721185791774115	0.0	0.9752868937840186	-0.277201594059499	0.0	1.0020290758802588	-0.15045713491366364	0.0	1.0138955107515357	-0.22328659292103542	0.0	0.9406398554757072	-0.3239305605280439	0.0	1.0258083044792217	-0.4531995665859503	0.0	1.151859233383803	-0.5081176724075902	0.0	0.9940243765709822	-0.31451849435046	0.0	0.9849824069329334	-0.44760306051362914	0.0	1.0292554106089544	-0.5435330104306988	0.0
28	0.9425742574257426	0.9416008839819052	-0.5595232800451938	0.0	0.9137778466048684	-0.5559013666755951	0.0	0.8491038975694579	-0.7604578728986374	0.0	0.7418676313273925	-0.9537863436997492	0.0	0.7541935553017056	-1.0099084609293607	0.0	0.7266504224083735	-1.0088699009551825	0.0	0.728183305584017	-0.9677407865394205	0.0	0.976707930202773	-0.5623062575809317	0.0	1.031455807184994	-0.7538975657883549	0.0	1.0127787121115415	-0.9500779514743063	0.0	1.102464165920829	-0.9813626430376952	0.0	1.0951622059729988	-0.9718135409227562	0.0	0.9925427540198384	-0.9724499746489994	0.0	0.9679695765116717	-0.2779099261873406	0.0	0.9958358872277988	-0.1509859060143176	0.0	1.0072876802361959	-0.22446352894133306	0.0	0.9309520493251505	-0.3243887262927396	0.0	1.0191871072278145	-0.45187273187275623	0.0	1.1479004499519536	-0.5024179216654424	0.0	0.9885429893570319	-0.3160706888655941	0.0	0.9712418390118256	-0.44964999341600165	0.0	1.0153875772971075	-0.5435102181320007	0.0
29	0.9762376237623763	0.9263589182077383	-0.5602313562318405	0.0	0.8951534250435059	-0.5560544658548207	0.0	0.8250105983099902	-0.7613065166133892	0.0	0.7241140457458072	-0.9579272818816946	0.0	0.7418076712129502	-1.0130425820146245	0.0	0.7124301664211613	-1.0127404555508706	0.0	0.7103512550341177	-0.9711378146668449	0.0	0.9622535633969052	-0.5639437653308131	0.0	1.021146256852778	-0.7547076402298335	0.0	1.0122816173660074	-0.9503078449597869	0.0	1.102489167972776	-0.980822207112197	0.0	1.0965945762427274	-0.9713979736060279	0.0	0.9930719818492261	-0.9727955630421626	0.0	0.9599036292514872	-0.27876248084310734	0.0	0.9887639581214426	-0.1520938405013881	0.0	0.9997224006500814	-0.22587183369281275	0.0	0.9191996776675396	-0.3248257713312099	0.0	1.0067049754247488	-0.451276971696705	0.0	1.137900976717616	-0.49947570784074746	0.0	0.982828455021014	-0.3187870278249573	0.0	0.9605234078072342	-0.4523812319046933	0.0	1.0050206418603507	-0.5431125307792615	0.0
30	1.00990099009901	0.9103551625501543	-0.5615032026419129	0.0	0.8761386929398234	-0.5567545728926867	0.0	0.8043295283572689	-0.7623315520226376	0.0	0.7113905861306162	-0.9612485693577913	0.0	0.7362708371524589	-1.0149583136562048	0.0	0.7050623294297668	-1.0156041062865167	0.0	0.697004438532899	-0.9739009446696224	0.0	0.9467363253787374	-0.5662301943291812	0.0	1.0092908109368488	-0.755800785346095	0.0	1.0111795706414342	-0.9504525861860154	0.0	1.1016598920935834	-0.9799995469460514	0.0	1.097022505071159	-0.9706768364169767	0.0	0.993334687808164	-0.9734313067403806	0.0	0.9511424554197235	-0.2798977606268035	0.0	0.9809009195825191	-0.15362723774084278	0.0	0.9912457988986734	-0.2276195469526163	0.0	0.9056968699311637	-0.3253263188279138	0.0	0.9882572303759557	-0.45156166570804357	0.0	1.1212670772727191	-0.4996286059890783	0.0	0.9769509414975025	-0.32260359958932366	0.0	0.9531827444718342	-0.4554515999765501	0.0	0.9987716574424756	-0.5426387111953509	0.0
31	1.0435643564356436	0.8938637305449152	-0.5630533057391297	0.0	0.8572356566392209	-0.5578047567520291	0.0	0.7865838301851903	-0.7634406118847955	0.0	0.7026229252173292	-0.9633901167916616	0.0	0.7342488622797209	-1.0155238124424317	0.0	0.7017137252630353	-1.0170739816394352	0.0	0.6872867911425321	-0.9756223437843804	0.0	0.930562260445319	-0.5689387461334043	0.0	0.9960533460997347	-0.7572626218467221	0.0	1.0093592525821473	-0.9505150265389116	0.0	1.1001773966788793	-0.9787653748297894	0.0	1.0964753237552847	-0.9695134857145413	0.0	0.993008790986282	-0.9744222958294056	0.0	0.9418724592254208	-0.2814604737817571	0.0	0.9724106040716579	-0.15550506780997198	0.0	0.981963832350444	-0.22990809410937513	0.0	0.890920920934011	-0.32601252530934255	0.0	0.9644266031615287	-0.4528782694913353	0.0	1.0978922083598737	-0.5031590418303556	0.0	0.9710473341472331	-0.32732108842195573	0.0	0.9489326020826192	-0.45868115119434927	0.0	0.9969569882728501	-0.5424678228344564	0.0
